<?xml version="1.0" encoding="UTF-8"?>
<svg version="1.1" xmlns="http://www.w3.org/2000/svg" width="476" height="453">
<path d="M0 0 C2 1 2 1 3.04397583 3.55516052 C3.41763275 4.69896683 3.79128967 5.84277313 4.17626953 7.02124023 C4.48979071 7.97058803 4.48979071 7.97058803 4.80964565 8.93911457 C5.50796575 11.05996574 6.19537785 13.18419159 6.8828125 15.30859375 C7.37364404 16.80718919 7.86510649 18.30557812 8.35716248 19.80377197 C9.68052566 23.83985805 10.99429466 27.87900814 12.3061409 31.91884995 C13.39855987 35.27891652 14.49655784 38.637148 15.59464359 41.9953661 C22.62508017 63.49754451 29.58119571 85.02357398 36.43798828 106.58178711 C39.6897525 116.8030168 42.97180486 127.01319597 46.30859375 137.20703125 C46.66232559 138.28804611 47.01605743 139.36906097 47.38050842 140.48283386 C49.07661732 145.66285403 50.77697685 150.84143741 52.48266602 156.01831055 C53.08225192 157.84552136 53.6817831 159.67275014 54.28125 161.5 C54.55847397 162.33686844 54.83569794 163.17373688 55.12132263 164.03596497 C57 169.77366819 57 169.77366819 57 172 C117.06 172 177.12 172 239 172 C233.37210682 177.62789318 233.37210682 177.62789318 230.64453125 179.65625 C230.03174316 180.11443115 229.41895508 180.5726123 228.78759766 181.04467773 C228.13581543 181.52493408 227.4840332 182.00519043 226.8125 182.5 C226.11688965 183.01699463 225.4212793 183.53398926 224.70458984 184.06665039 C217.28103661 189.5669562 209.78525245 194.9677881 202.28222656 200.35888672 C198.51700953 203.06639516 194.75878552 205.78357364 191 208.5 C186.51393496 211.74136804 182.02695159 214.98141962 177.53515625 218.21484375 C169.82537027 223.76804624 162.14242369 229.35437205 154.5 235 C144.6304316 242.29086917 134.68689552 249.47664013 124.72216797 256.63671875 C123.1874614 257.73953329 121.65320527 258.84297493 120.11938477 259.94702148 C118.71072499 260.96095619 117.30118904 261.9736759 115.89038086 262.98461914 C108.17453001 268.54036694 100.59717935 274.2837887 93 280 C100.63796332 304.46039182 108.5435869 328.82895322 116.56396103 353.16606522 C123.86378448 375.31731391 131.13607924 397.4756731 138.25 419.6875 C138.58029205 420.71608124 138.91058411 421.74466248 139.25088501 422.80441284 C145.69874543 442.89824313 145.69874543 442.89824313 148 452 C144.61014395 450.75672163 141.87003997 449.36877594 138.98828125 447.19921875 C137.86570923 446.36185181 137.86570923 446.36185181 136.72045898 445.50756836 C135.92583252 444.9069458 135.13120605 444.30632324 134.3125 443.6875 C132.60213186 442.41069528 130.89118059 441.13467138 129.1796875 439.859375 C128.3144043 439.21291016 127.44912109 438.56644531 126.55761719 437.90039062 C122.71095124 435.04219592 118.82720795 432.23669978 114.9375 429.4375 C114.19991455 428.90600342 113.4623291 428.37450684 112.70239258 427.8269043 C111.21310472 426.75393455 109.7236034 425.68126101 108.23388672 424.60888672 C103.73476831 421.36853805 99.24175881 418.11972298 94.74755859 414.87255859 C91.012055 412.17401978 87.2751852 409.47742047 83.53515625 406.78515625 C75.02079319 400.65243321 66.54783798 394.46767211 58.10791016 388.23291016 C50.5291967 382.64002131 42.89585299 377.12469012 35.25146484 371.62207031 C32.95365004 369.96660712 30.65811124 368.30803543 28.36328125 366.6484375 C19.26404153 360.06808808 10.14659563 353.51437599 1 347 C-5.12447011 351.00435695 -11.07057415 355.19102852 -16.9375 359.5625 C-25.49931956 365.90611806 -34.11804689 372.16579256 -42.76611328 378.39111328 C-46.51359769 381.09012118 -50.25661201 383.79531494 -54 386.5 C-58.48610379 389.74131453 -62.97304831 392.98141954 -67.46484375 396.21484375 C-75.17462973 401.76804624 -82.85757631 407.35437205 -90.5 413 C-99.61761559 419.73538494 -108.80010249 426.37765148 -118 433 C-121.20917464 435.31133495 -124.41729179 437.62413052 -127.625 439.9375 C-128.34695557 440.45707275 -129.06891113 440.97664551 -129.81274414 441.51196289 C-130.5061792 442.01203857 -131.19961426 442.51211426 -131.9140625 443.02734375 C-132.58598633 443.51187012 -133.25791016 443.99639648 -133.95019531 444.49560547 C-136.78930078 446.57928435 -139.57247608 448.73457365 -142.34912109 450.90063477 C-144 452 -144 452 -146 452 C-144.58835108 443.08386588 -141.75202375 434.68570493 -138.8984375 426.15625 C-138.38376708 424.60296221 -137.86968171 423.04948046 -137.35614014 421.49581909 C-136.26663515 418.20276311 -135.17379402 414.9108425 -134.07818604 411.61981201 C-131.49732786 403.86610379 -128.93460671 396.10639553 -126.37110519 388.34693527 C-125.80018778 386.61904573 -125.22906358 384.8912245 -124.65773392 383.16347122 C-118.14747066 363.47508095 -111.82265985 343.72962135 -105.54330444 323.96647644 C-103.58333254 317.80635983 -101.59354596 311.65646428 -99.5859375 305.51171875 C-99.31959503 304.69523865 -99.05325256 303.87875854 -98.77883911 303.03753662 C-97.55600646 299.28999407 -96.3290959 295.54389017 -95.09423828 291.80029297 C-94.67722743 290.52447335 -94.26038626 289.24859825 -93.84375 287.97265625 C-93.48474609 286.88218994 -93.12574219 285.79172363 -92.75585938 284.66821289 C-91.86372112 281.98113165 -91.86372112 281.98113165 -92 279 C-93.92385666 277.39781713 -95.80427754 276.01533028 -97.875 274.625 C-99.17113807 273.72737802 -100.4666829 272.82889897 -101.76171875 271.9296875 C-102.45313965 271.45370117 -103.14456055 270.97771484 -103.85693359 270.48730469 C-107.50246544 267.95727735 -111.09348868 265.35245137 -114.6875 262.75 C-115.44144043 262.20553223 -116.19538086 261.66106445 -116.97216797 261.10009766 C-123.30837783 256.51824339 -129.6018589 251.87962537 -135.89111328 247.23364258 C-143.47602148 241.63614485 -151.11555308 236.11615144 -158.76611328 230.60888672 C-163.26523169 227.36853805 -167.75824119 224.11972298 -172.25244141 220.87255859 C-175.987945 218.17401978 -179.7248148 215.47742047 -183.46484375 212.78515625 C-191.96814776 206.66039881 -200.43046597 200.48415641 -208.85913086 194.25708008 C-214.55035305 190.05682267 -220.26591452 185.8915419 -226 181.75 C-226.75990234 181.20085937 -227.51980469 180.65171875 -228.30273438 180.0859375 C-231.17783777 178.01312737 -234.05031877 175.96645415 -237 174 C-237 173.34 -237 172.68 -237 172 C-176.94 172 -116.88 172 -55 172 C-54.34 168.7 -53.68 165.4 -53 162 C-52.32213762 159.63817205 -51.59898452 157.28870657 -50.82373047 154.95703125 C-50.51022203 154.00575033 -50.51022203 154.00575033 -50.1903801 153.03525162 C-49.5047528 150.95915508 -48.81097162 148.88588337 -48.1171875 146.8125 C-47.62502963 145.3267473 -47.13345636 143.84080085 -46.64242554 142.35467529 C-45.60009111 139.20312892 -44.55441975 136.05271922 -43.50598145 132.90319824 C-41.02948161 125.46253976 -38.57114901 118.01587278 -36.11195374 110.5694809 C-35.56267168 108.90649432 -35.01318182 107.24357638 -34.46348572 105.58072662 C-29.64254185 90.99669761 -24.90910939 76.38663749 -20.25 61.75 C-19.61630979 59.76106214 -18.98260237 57.77212977 -18.34887695 55.78320312 C-17.44032703 52.93115693 -16.53191266 50.07906808 -15.6240387 47.22680664 C-12.72793471 38.13287576 -9.80265109 29.04846955 -6.86193848 19.96887207 C-6.33568491 18.34366541 -5.81003409 16.71826343 -5.28503418 15.09265137 C-4.57837072 12.90498576 -3.86962945 10.71800574 -3.16015625 8.53125 C-2.56666382 6.69916992 -2.56666382 6.69916992 -1.96118164 4.83007812 C-1 2 -1 2 0 0 Z " fill="#E5D8FF" transform="translate(237,0)"/>
</svg>
